<svg width="445" height="177" xmlns="http://www.w3.org/2000/svg">
 <metadata id="metadata30">image/svg+xml</metadata>

 <g>
  <title>background</title>
  <rect x="-1" y="-1" width="447" height="179" id="canvas_background" fill="none"/>
 </g>
 <g>
  <title>Layer 1</title>
  <g id="g4">
   <path id="path6" d="m10.2415,75.749041l20.7175,0l0,59.2808c0,4.6185 3.7785,8.3961 8.3961,8.3961l29.85,0l147.5637,0l222.7886,0c1.6358,0 2.9745,-1.3387 2.9745,-2.9746l0,-5.9499c0,-1.6359 -1.3379,-2.9746 -2.9745,-2.9746l-214.3926,0l0,-55.7778l21.2468,0c14.35,0 10.7723,-7.5794 0.0345,-13.147l-109.1641,-56.5978c-5.7179,-2.9642 -13.657,-2.4968 -19.3805,0.4569l-109.3464,56.4476c-10.6479,5.4962 -12.7263,12.8403 1.6864,12.8403z" fill-rule="evenodd" fill="#f27e00"/>
   <path id="path8" d="m95.5618,124.043941l-59.9691,0l0,-7.7448l4.3527,0l17.408,-39.0211c0.7863,-1.7699 1.6712,-3.0484 2.655,-3.8354c1.3772,-1.0818 3.246,-1.623 5.6062,-1.623c2.2125,0 3.9342,0.4304 5.1629,1.2913c1.2295,0.8601 2.2623,2.2494 3.0983,4.1671l17.3342,39.0211l4.3518,0l0,7.7448zm-14.3099,-7.7448l-14.4576,-33.4888c-0.4425,-1.0817 -0.836,-1.6221 -1.1797,-1.6221c-0.3935,0 -0.8119,0.5404 -1.2544,1.6221l-14.4568,33.4888l31.3485,0z" fill-rule="evenodd" fill="#ffffff"/>
   <path id="path10" d="m150.7365,98.226841c0,10.1299 -1.9426,17.1134 -5.827,20.9489c-2.41,2.3602 -5.803,3.9583 -10.1797,4.7943c-2.4582,0.4425 -5.925,0.6641 -10.4005,0.6641c-4.5237,0 -8.0154,-0.2216 -10.4736,-0.6641c-4.2298,-0.787 -7.6227,-2.4092 -10.1797,-4.8682c-2.557,-2.459 -4.278,-5.9259 -5.1629,-10.4006c-0.4923,-2.5079 -0.7381,-5.9997 -0.7381,-10.4744c0,-4.6714 0.2948,-8.384 0.885,-11.1377c0.885,-4.18 2.5819,-7.4629 5.0899,-9.8472c2.5079,-2.3851 5.876,-3.9712 10.1058,-4.7582c2.4092,-0.4425 5.9009,-0.6641 10.4736,-0.6641c4.5245,0 7.9913,0.2216 10.4005,0.6641c4.3277,0.787 7.7207,2.3851 10.1797,4.7943c3.8844,3.7865 5.827,10.77 5.827,20.9488zm-10.0319,0c0,-6.7859 -1.0817,-11.5561 -3.2452,-14.3098c-2.3112,-2.9015 -6.7128,-4.3518 -13.2032,-4.3518c-3.0493,0 -5.3854,0.1967 -7.0076,0.5902c-2.5569,0.6393 -4.5983,1.8928 -6.1226,3.7616c-2.2124,2.7537 -3.319,7.5239 -3.319,14.3098c0,6.639 1.1066,11.3843 3.319,14.236c1.4753,1.8688 3.4669,3.1231 5.9749,3.7624c1.623,0.4425 4.0081,0.6633 7.1553,0.6633c6.4904,0 10.892,-1.4752 13.2032,-4.4257c2.1635,-2.7537 3.2452,-7.499 3.2452,-14.236z" fill-rule="evenodd" fill="#ffffff"/>
   <path id="path12" d="m222.4336,124.043941l-9.7364,0l0.2947,-40.2008c0,-1.0328 -0.2947,-1.5491 -0.8849,-1.5491c-0.3935,0 -0.8111,0.5661 -1.2536,1.6969l-13.2041,34.4467c-0.9339,2.41 -1.8438,4.033 -2.7288,4.8682c-1.0327,0.8858 -2.5818,1.3283 -4.6473,1.3283c-1.9667,0 -3.4548,-0.4184 -4.4627,-1.2544c-1.0078,-0.836 -1.9795,-2.4831 -2.9135,-4.9421l-13.2032,-34.4467c-0.4425,-1.1308 -0.8609,-1.6969 -1.2544,-1.6969c-0.5405,0 -0.8111,0.5163 -0.8111,1.5491l0.2208,40.2008l-9.7364,0l0,-45.4376c0,-4.5245 2.7786,-6.7867 8.3351,-6.7867c2.1642,0 3.8603,0.3935 5.0898,1.1805c1.623,0.9837 2.9505,2.8027 3.9832,5.4584l13.351,34.4468c0.4915,1.2793 0.9589,1.9185 1.4014,1.9185c0.4425,0 0.9098,-0.6392 1.4013,-1.9185l13.351,-34.4468c1.0328,-2.6557 2.361,-4.4747 3.9832,-5.4584c1.2295,-0.787 2.9264,-1.1805 5.0899,-1.1805c5.5564,0 8.335,2.2622 8.335,6.7867l0,45.4376z" fill-rule="evenodd" fill="#ffffff"/>
   <path id="path14" d="m268.0928,124.043941l-8.6306,0l0.2956,-27.8087c0,-0.6882 -0.1478,-1.0327 -0.4433,-1.0327c-0.196,0 -0.5405,0.3445 -1.032,1.0327l-17.1872,25.1529c-1.4263,2.0655 -3.2942,3.0982 -5.6054,3.0982c-3.7865,0 -5.6801,-1.8438 -5.6801,-5.5323l0,-34.0043l8.6305,0l-0.3694,27.8086c0,0.6883 0.1968,1.0328 0.5903,1.0328c0.1967,0 0.5413,-0.3445 1.0327,-1.0328l17.4081,-25.5953c1.1805,-1.7708 2.9505,-2.6558 5.3107,-2.6558c3.7865,0 5.6801,1.9916 5.6801,5.9749l0,33.5618z" fill-rule="evenodd" fill="#f27e00"/>
   <path id="path16" d="m309.9158,124.043941l-8.6298,0l0,-16.8179l-18.6617,0l0,16.8179l-8.6305,0l0,-39.0942l8.6305,0l0,15.6374l18.6617,0l0,-15.6374l8.6298,0l0,39.0942z" fill-rule="evenodd" fill="#f27e00"/>
   <path id="path18" d="m354.1005,124.043941l-8.6305,0l0.2955,-27.8087c0,-0.6882 -0.1478,-1.0327 -0.4433,-1.0327c-0.1959,0 -0.5405,0.3445 -1.0319,1.0327l-17.1873,25.1529c-1.4262,2.0655 -3.2942,3.0982 -5.6054,3.0982c-3.7865,0 -5.6801,-1.8438 -5.6801,-5.5323l0,-34.0043l8.6306,0l-0.3694,27.8086c0,0.6883 0.1967,1.0328 0.5902,1.0328c0.1968,0 0.5413,-0.3445 1.0328,-1.0328l17.4081,-25.5953c1.1805,-1.7708 2.9504,-2.6558 5.3106,-2.6558c3.7865,0 5.6801,1.9916 5.6801,5.9749l0,33.5618z" fill-rule="evenodd" fill="#f27e00"/>
   <path id="path20" d="m400.5708,104.349441c0,7.4742 -1.6719,12.7857 -5.0159,15.9329c-2.9995,2.8027 -8.2612,4.204 -15.7851,4.204c-7.4742,0 -12.7359,-1.4013 -15.7851,-4.204c-3.344,-3.0493 -5.016,-8.262 -5.016,-15.6382c0,-7.5729 1.672,-12.9085 5.016,-16.0059c2.9505,-2.7545 8.2122,-4.131 15.7851,-4.131c7.5729,0 12.8346,1.3765 15.7851,4.131c3.344,3.0974 5.0159,8.335 5.0159,15.7112zm-8.9253,0.2209c0,-5.016 -0.8359,-8.4579 -2.5079,-10.3267c-1.8688,-2.0655 -4.9911,-3.0982 -9.3678,-3.0982c-4.5237,0 -7.6709,1.0327 -9.4417,3.0982c-1.623,1.8688 -2.4341,5.3107 -2.4341,10.3267c0,4.7702 0.836,8.1142 2.508,10.0319c1.8687,2.1634 4.9911,3.246 9.3678,3.246c4.2779,0 7.3762,-1.0826 9.2939,-3.246c1.7218,-1.9177 2.5818,-5.2617 2.5818,-10.0319z" fill-rule="evenodd" fill="#f27e00"/>
   <path id="path22" d="m441.361,124.043941l-8.6297,0l0,-16.8179l-18.6617,0l0,16.8179l-8.6306,0l0,-39.0942l8.6306,0l0,15.6374l18.6617,0l0,-15.6374l8.6297,0l0,39.0942z" fill-rule="evenodd" fill="#f27e00"/>
   <path id="path24" d="m47.5327,165.008341c0,2.1723 -0.628,3.8202 -1.8832,4.9437c-1.2552,1.1227 -3.0058,1.7138 -5.2512,1.7724l0,1.7177l-2.0262,0l0,-1.7177c-2.3345,-0.1028 -4.1068,-0.7228 -5.3179,-1.8607c-1.211,-1.138 -1.8165,-2.7417 -1.8165,-4.8112c0,-2.1731 0.6272,-3.821 1.8824,-4.9437c1.2552,-1.1227 3.0059,-1.7137 5.252,-1.7724l0,-1.5419l2.0262,0l0,1.5419c2.3337,0.1028 4.1061,0.7228 5.3171,1.8607c1.2118,1.1372 1.8173,2.7417 1.8173,4.8112zm-14.1372,0.0442c0,1.688 0.4144,2.9432 1.244,3.7656c0.8296,0.8215 2.0888,1.2696 3.7768,1.3427l0,-10.2833c-1.7177,0.1028 -2.9842,0.5582 -3.7985,1.3652c-0.8151,0.8079 -1.2223,2.0776 -1.2223,3.8098zm6.9586,5.1308c1.717,-0.1028 2.9834,-0.5581 3.7985,-1.3652c0.8143,-0.8079 1.2215,-2.0776 1.2215,-3.8098c0,-1.688 -0.4144,-2.9432 -1.244,-3.7656c-0.8295,-0.8215 -2.0879,-1.2696 -3.776,-1.3427l0,10.2833zm17.1752,2.5321l0,-5.2409c0,-0.8809 0.0289,-1.7177 0.0884,-2.5103c0.0586,-0.7927 0.11,-1.3139 0.1533,-1.5636l-4.8216,9.3148l-2.4445,0l0,-11.6044l2.0036,0l0,5.2409c0,0.7773 -0.0289,1.5812 -0.0883,2.4108c-0.0586,0.8295 -0.1028,1.362 -0.1317,1.5965l4.7566,-9.2482l2.4879,0l0,11.6044l-2.0037,0zm8.2138,-5.1084l0,5.1084l-2.0261,0l0,-11.6044l2.0261,0l0,4.8658l4.8224,0l0,-4.8658l2.0253,0l0,11.6044l-2.0253,0l0,-5.1084l-4.8224,0zm18.8488,2.3996c0,0.4698 0.0811,0.8183 0.2425,1.0464c0.1614,0.2273 0.4032,0.3999 0.726,0.5172l-0.4618,1.4094c-0.6023,-0.0731 -1.0865,-0.2426 -1.4535,-0.5068c-0.367,-0.2642 -0.6385,-0.6745 -0.8151,-1.2327c-0.7774,1.1597 -1.9298,1.7395 -3.4572,1.7395c-1.1444,0 -2.0479,-0.3229 -2.708,-0.9685c-0.6609,-0.6465 -0.991,-1.4905 -0.991,-2.5329c0,-1.2327 0.4441,-2.1795 1.3323,-2.8405c0.8882,-0.6609 2.1466,-0.9909 3.776,-0.9909l1.7837,0l0,-0.8585c0,-0.8224 -0.1976,-1.4094 -0.5943,-1.7619c-0.3967,-0.3526 -1.0055,-0.5285 -1.8278,-0.5285c-0.8513,0 -1.8936,0.2056 -3.1263,0.6168l-0.5068,-1.4752c1.4383,-0.5285 2.7746,-0.7927 4.0073,-0.7927c1.3652,0 2.3859,0.3333 3.0613,1.0015c0.6754,0.6681 1.0127,1.6189 1.0127,2.8516l0,5.3067zm-4.7566,1.4536c1.1597,0 2.0703,-0.6015 2.7305,-1.8053l0,-2.6646l-1.5195,0c-2.1433,0 -3.2146,0.7926 -3.2146,2.3779c0,0.6898 0.1686,1.211 0.5067,1.5635c0.3373,0.3526 0.8368,0.5285 1.4969,0.5285zm10.9442,-3.8532l0,5.1084l-2.0261,0l0,-11.6044l2.0261,0l0,4.8658l4.8224,0l0,-4.8658l2.0254,0l0,11.6044l-2.0254,0l0,-5.1084l-4.8224,0zm15.2599,-6.7602c0.6898,0 1.3211,0.0988 1.8936,0.2972c0.5726,0.1983 1.1227,0.5171 1.6512,0.958l-0.991,1.3211c-0.3959,-0.3084 -0.7854,-0.5357 -1.1669,-0.6826c-0.3814,-0.147 -0.8151,-0.2201 -1.2994,-0.2201c-0.9395,0 -1.6695,0.3742 -2.1907,1.1227c-0.5212,0.7485 -0.7814,1.8567 -0.7814,3.3247c0,1.468 0.2562,2.5514 0.7701,3.2484c0.514,0.6971 1.248,1.0456 2.202,1.0456c0.4698,0 0.8923,-0.0731 1.2665,-0.22c0.3742,-0.147 0.7814,-0.3887 1.2223,-0.7268l0.9685,1.3877c-1.0569,0.8512 -2.239,1.2769 -3.5448,1.2769c-1.5708,0 -2.8083,-0.5284 -3.711,-1.5853c-0.9026,-1.0568 -1.3539,-2.5176 -1.3539,-4.3823c0,-1.2327 0.2056,-2.3121 0.6167,-3.2372c0.4112,-0.9243 0.9942,-1.6439 1.7507,-2.1578c0.7557,-0.5132 1.6551,-0.7702 2.6975,-0.7702zm10.4375,0c1.6294,0 2.8958,0.5429 3.7985,1.6295c0.9026,1.0857 1.354,2.5617 1.354,4.4257c0,1.2038 -0.2056,2.2646 -0.616,3.1817c-0.4112,0.9179 -1.0062,1.6294 -1.7836,2.1362c-0.7782,0.5067 -1.7033,0.7597 -2.7746,0.7597c-1.6294,0 -2.8999,-0.5429 -3.8098,-1.6295c-0.9098,-1.0865 -1.3652,-2.5617 -1.3652,-4.4257c0,-1.2038 0.2056,-2.2646 0.6168,-3.1825c0.4112,-0.9171 1.0054,-1.6294 1.7836,-2.1354c0.7782,-0.5067 1.7097,-0.7597 2.7963,-0.7597zm0,1.6295c-2.0109,0 -3.0163,1.4824 -3.0163,4.4481c0,2.9505 0.9982,4.4257 2.9946,4.4257c1.9964,0 2.9946,-1.4824 2.9946,-4.4481c0,-2.9505 -0.9909,-4.4257 -2.9729,-4.4257zm14.6214,3.9414c0.9982,0.1028 1.7395,0.3887 2.2237,0.8585c0.4843,0.4698 0.7268,1.1379 0.7268,2.0036c0,1.1605 -0.4441,2.023 -1.3323,2.5875c-0.8882,0.5654 -2.0735,0.8481 -3.556,0.8481l-4.184,0l0,-11.4502c1.3653,-0.2794 2.6349,-0.4184 3.8098,-0.4184c1.4238,0 2.5578,0.2642 3.4018,0.7927c0.844,0.5284 1.2664,1.2768 1.2664,2.2461c0,0.6312 -0.1799,1.1597 -0.5396,1.5853c-0.3598,0.4256 -0.9653,0.7412 -1.8166,0.9468zm-2.2903,-4.0081c-0.6168,0 -1.2183,0.0442 -1.8053,0.1325l0,3.2813l2.0695,0c0.734,0 1.3026,-0.1325 1.7065,-0.3967c0.404,-0.2642 0.6055,-0.7123 0.6055,-1.3435c0,-0.5871 -0.2128,-1.0127 -0.6384,-1.2769c-0.4256,-0.2642 -1.0721,-0.3967 -1.9378,-0.3967zm0.0217,8.7205c0.9251,0 1.6703,-0.1213 2.2357,-0.3638c0.5646,-0.2417 0.8472,-0.7444 0.8472,-1.5081c0,-0.7485 -0.2345,-1.2585 -0.7042,-1.5307c-0.4698,-0.2714 -1.138,-0.4071 -2.0037,-0.4071l-2.202,0l0,3.8097l1.827,0zm12.8161,-10.2833c1.6294,0 2.8959,0.5429 3.7985,1.6295c0.9027,1.0857 1.354,2.5617 1.354,4.4257c0,1.2038 -0.2056,2.2646 -0.616,3.1817c-0.4111,0.9179 -1.0062,1.6294 -1.7836,2.1362c-0.7781,0.5067 -1.7033,0.7597 -2.7746,0.7597c-1.6294,0 -2.8998,-0.5429 -3.8097,-1.6295c-0.9099,-1.0865 -1.3652,-2.5617 -1.3652,-4.4257c0,-1.2038 0.2056,-2.2646 0.6167,-3.1825c0.4112,-0.9171 1.0055,-1.6294 1.7836,-2.1354c0.7782,-0.5067 1.7098,-0.7597 2.7963,-0.7597zm0,1.6295c-2.0109,0 -3.0163,1.4824 -3.0163,4.4481c0,2.9505 0.9982,4.4257 2.9946,4.4257c1.9965,0 2.9947,-1.4824 2.9947,-4.4481c0,-2.9505 -0.991,-4.4257 -2.973,-4.4257zm19.7515,-5.1967c0.9106,0 1.6776,0.1172 2.3016,0.3517c0.6239,0.2353 1.2584,0.6168 1.904,1.1452l-1.1443,1.3436c-0.9252,-0.7493 -1.9017,-1.1235 -2.9288,-1.1235c-1.2625,0 -2.2791,0.485 -3.0501,1.4535c-0.7709,0.9693 -1.1556,2.5249 -1.1556,4.6682c0,2.0848 0.3815,3.6227 1.1444,4.6137c0.7637,0.9901 1.7764,1.4856 3.0388,1.4856c0.6465,0 1.2038,-0.11 1.6736,-0.33c0.4698,-0.2201 0.9837,-0.5357 1.5419,-0.9468l1.0568,1.3435c-0.4553,0.4842 -1.0536,0.8882 -1.7949,1.211c-0.7412,0.3229 -1.5892,0.4843 -2.5433,0.4843c-1.2327,0 -2.3305,-0.3044 -3.2917,-0.9139c-0.9621,-0.6095 -1.7106,-1.505 -2.2462,-2.6863c-0.5357,-1.1821 -0.8039,-2.6019 -0.8039,-4.2611c0,-1.6591 0.2787,-3.0789 0.8368,-4.261c0.5581,-1.1813 1.3138,-2.0736 2.2679,-2.6751c0.9548,-0.6023 2.0189,-0.9026 3.193,-0.9026zm9.909,5.4825l0,9.9533l-2.0261,0l0,-9.9533l-3.8315,0l0,-1.6511l9.8208,0l-0.2418,1.6511l-3.7214,0zm11.3843,-1.9153c1.4825,0 2.569,0.5284 3.2588,1.5853c0.6899,1.0568 1.0344,2.5465 1.0344,4.4699c0,1.8205 -0.3959,3.2885 -1.1885,4.404c-0.7927,1.1154 -1.9162,1.6736 -3.3697,1.6736c-1.2913,0 -2.304,-0.4401 -3.038,-1.3211l0,5.5051l-2.0262,0.2417l0,-16.2943l1.7395,0l0.1542,1.5628c0.4256,-0.587 0.9396,-1.0384 1.5411,-1.354c0.6023,-0.3156 1.2335,-0.473 1.8944,-0.473zm-0.7493,10.4817c1.9089,0 2.863,-1.4761 2.863,-4.4265c0,-2.965 -0.8738,-4.4482 -2.6204,-4.4482c-0.5726,0 -1.0938,0.1694 -1.5636,0.5067c-0.4698,0.3373 -0.881,0.7709 -1.2327,1.2994l0,5.6592c0.2931,0.4545 0.6601,0.803 1.101,1.0456c0.4401,0.2425 0.9243,0.3638 1.4527,0.3638zm12.8596,-10.4817c1.6294,0 2.8958,0.5429 3.7985,1.6295c0.9026,1.0857 1.3539,2.5617 1.3539,4.4257c0,1.2038 -0.2055,2.2646 -0.6159,3.1817c-0.4112,0.9179 -1.0063,1.6294 -1.7836,2.1362c-0.7782,0.5067 -1.7033,0.7597 -2.7746,0.7597c-1.6294,0 -2.8999,-0.5429 -3.8098,-1.6295c-0.9099,-1.0865 -1.3652,-2.5617 -1.3652,-4.4257c0,-1.2038 0.2056,-2.2646 0.6168,-3.1825c0.4111,-0.9171 1.0054,-1.6294 1.7836,-2.1354c0.7781,-0.5067 1.7097,-0.7597 2.7963,-0.7597zm0,1.6295c-2.0109,0 -3.0164,1.4824 -3.0164,4.4481c0,2.9505 0.9982,4.4257 2.9947,4.4257c1.9964,0 2.9946,-1.4824 2.9946,-4.4481c0,-2.9505 -0.991,-4.4257 -2.9729,-4.4257zm15.5241,10.2391l0,-5.2409c0,-0.8809 0.0289,-1.7177 0.0883,-2.5103c0.0586,-0.7927 0.11,-1.3139 0.1534,-1.5636l-4.8216,9.3148l-2.4446,0l0,-11.6044l2.0037,0l0,5.2409c0,0.7773 -0.0289,1.5812 -0.0884,2.4108c-0.0586,0.8295 -0.1028,1.362 -0.1317,1.5965l4.7566,-9.2482l2.4879,0l0,11.6044l-2.0036,0zm10.0632,-9.9533l0,9.9533l-2.0261,0l0,-9.9533l-3.8315,0l0,-1.6511l9.8207,0l-0.2417,1.6511l-3.7214,0zm14.599,3.8098c0,0.3373 -0.0145,0.6826 -0.0442,1.0351l-7.3987,0c0.0884,1.2769 0.4112,2.2165 0.9693,2.818c0.5574,0.6023 1.2769,0.9035 2.1579,0.9035c0.5573,0 1.0713,-0.0811 1.5411,-0.2426c0.4698,-0.1614 0.9612,-0.4184 1.4752,-0.7709l0.881,1.211c-1.2327,0.9693 -2.5835,1.4536 -4.0515,1.4536c-1.615,0 -2.8742,-0.5284 -3.7768,-1.5853c-0.9027,-1.0568 -1.354,-2.5104 -1.354,-4.3598c0,-1.2038 0.1943,-2.2719 0.5838,-3.2043c0.3887,-0.9323 0.9468,-1.6623 1.6728,-2.1907c0.7268,-0.5285 1.582,-0.7927 2.5658,-0.7927c1.5411,0 2.7232,0.506 3.5455,1.5194c0.8216,1.0127 1.2328,2.4149 1.2328,4.2057zm-2.0037,-0.5951c0,-1.1443 -0.2281,-2.0181 -0.6826,-2.6196c-0.4553,-0.6023 -1.1379,-0.9034 -2.0478,-0.9034c-1.6592,0 -2.5618,1.219 -2.7088,3.6555l5.4392,0l0,-0.1325zm13.4104,6.7386l-2.0261,0l0,-9.9533l-3.5889,0l-0.3301,3.8756c-0.1325,1.5708 -0.2979,2.7449 -0.4955,3.5231c-0.1983,0.7782 -0.5067,1.3765 -0.9251,1.7949c-0.4184,0.4184 -1.0536,0.7597 -1.9049,1.0239l-0.5059,-1.6078c0.4987,-0.1758 0.8512,-0.4031 1.0568,-0.6826c0.2056,-0.2786 0.3598,-0.7043 0.4626,-1.2769c0.102,-0.5725 0.2128,-1.5708 0.33,-2.9946l0.4626,-5.3067l7.4645,0l0,11.6044zm7.7512,-7.8613c1.7323,0 2.9874,0.3381 3.7656,1.0127c0.7782,0.6754 1.1669,1.6375 1.1669,2.8846c0,1.3066 -0.4369,2.2944 -1.3098,2.9617c-0.8738,0.6682 -1.9563,1.0023 -3.2484,1.0023l-3.9415,0l0,-11.6044l2.0261,0l0,3.7431l1.5411,0zm0.1984,6.276c0.8215,0 1.4568,-0.1839 1.9049,-0.5509c0.4473,-0.367 0.6713,-0.9757 0.6713,-1.8278c0,-0.8071 -0.2096,-1.4013 -0.628,-1.7836c-0.4184,-0.3814 -1.1411,-0.5726 -2.1682,-0.5726l-1.5195,0l0,4.7349l1.7395,0zm9.6232,-3.5231l0,5.1084l-2.0262,0l0,-11.6044l2.0262,0l0,4.8658l4.8224,0l0,-4.8658l2.0253,0l0,11.6044l-2.0253,0l0,-5.1084l-4.8224,0zm15.3915,-6.7602c1.6295,0 2.8959,0.5429 3.7986,1.6295c0.9026,1.0857 1.3539,2.5617 1.3539,4.4257c0,1.2038 -0.2056,2.2646 -0.6159,3.1817c-0.4112,0.9179 -1.0063,1.6294 -1.7836,2.1362c-0.7782,0.5067 -1.7033,0.7597 -2.7746,0.7597c-1.6295,0 -2.8999,-0.5429 -3.8098,-1.6295c-0.9099,-1.0865 -1.3652,-2.5617 -1.3652,-4.4257c0,-1.2038 0.2056,-2.2646 0.6167,-3.1825c0.4112,-0.9171 1.0055,-1.6294 1.7837,-2.1354c0.7781,-0.5067 1.7097,-0.7597 2.7962,-0.7597zm0,1.6295c-2.0108,0 -3.0163,1.4824 -3.0163,4.4481c0,2.9505 0.9982,4.4257 2.9947,4.4257c1.9964,0 2.9946,-1.4824 2.9946,-4.4481c0,-2.9505 -0.991,-4.4257 -2.973,-4.4257zm17.2636,4.0956c0,0.3373 -0.0145,0.6826 -0.0442,1.0351l-7.3986,0c0.0883,1.2769 0.4111,2.2165 0.9693,2.818c0.5573,0.6023 1.2768,0.9035 2.1578,0.9035c0.5573,0 1.0713,-0.0811 1.5411,-0.2426c0.4698,-0.1614 0.9613,-0.4184 1.4752,-0.7709l0.881,1.211c-1.2327,0.9693 -2.5835,1.4536 -4.0515,1.4536c-1.615,0 -2.8742,-0.5284 -3.7768,-1.5853c-0.9027,-1.0568 -1.354,-2.5104 -1.354,-4.3598c0,-1.2038 0.1944,-2.2719 0.5838,-3.2043c0.3887,-0.9323 0.9469,-1.6623 1.6728,-2.1907c0.7268,-0.5285 1.5821,-0.7927 2.5658,-0.7927c1.5411,0 2.7232,0.506 3.5456,1.5194c0.8215,1.0127 1.2327,2.4149 1.2327,4.2057zm-2.0037,-0.5951c0,-1.1443 -0.228,-2.0181 -0.6826,-2.6196c-0.4553,-0.6023 -1.1379,-0.9034 -2.0478,-0.9034c-1.6591,0 -2.5618,1.219 -2.7087,3.6555l5.4391,0l0,-0.1325zm16.7127,-8.6972c1.2776,0 2.3971,0.3044 3.3584,0.9139c0.9613,0.6087 1.7097,1.5009 2.2462,2.675c0.5356,1.1741 0.8038,2.5987 0.8038,4.2723c0,1.6439 -0.2682,3.0533 -0.8038,4.2274c-0.5365,1.1749 -1.2849,2.0703 -2.2462,2.6862c-0.9613,0.6168 -2.0808,0.9252 -3.3584,0.9252c-1.2769,0 -2.3964,-0.3012 -3.3577,-0.9027c-0.962,-0.6023 -1.7105,-1.4905 -2.2461,-2.6646c-0.5357,-1.174 -0.8039,-2.5907 -0.8039,-4.2498c0,-1.6294 0.2682,-3.0388 0.8039,-4.2281c0.5356,-1.1886 1.2881,-2.0952 2.2566,-2.7192c0.9693,-0.624 2.0847,-0.9356 3.3472,-0.9356zm0,1.717c-1.3211,0 -2.3482,0.4995 -3.0822,1.4977c-0.734,0.9982 -1.101,2.5545 -1.101,4.6682c0,2.0992 0.3702,3.6403 1.1114,4.6241c0.7413,0.9837 1.7652,1.4752 3.0718,1.4752c2.7898,0 4.184,-2.0406 4.184,-6.121c0,-4.0964 -1.3942,-6.1442 -4.184,-6.1442zm14.7756,2.8629c1.3219,0 2.3747,0.477 3.1601,1.4311c0.7854,0.954 1.1781,2.2534 1.1781,3.8981c0,1.835 -0.4626,3.2588 -1.3869,4.2715c-0.9252,1.0126 -2.1659,1.5194 -3.7214,1.5194c-1.5564,0 -2.8003,-0.5501 -3.7327,-1.6511c-0.9324,-1.101 -1.3981,-2.7674 -1.3981,-4.9991c0,-1.6881 0.1285,-3.0718 0.3854,-4.1503c0.257,-1.0793 0.7043,-1.9675 1.3428,-2.6646c0.6392,-0.6978 1.5378,-1.2447 2.6975,-1.6406c0.8665,-0.294 1.5603,-0.5582 2.0815,-0.7927c0.5204,-0.2353 1.0528,-0.5356 1.5957,-0.9026l0.8593,1.5194c-0.514,0.3228 -1.0464,0.62 -1.5965,0.8914c-0.5509,0.2714 -1.2078,0.5324 -1.9707,0.7814c-0.734,0.2497 -1.3138,0.5324 -1.7395,0.848c-0.4256,0.3156 -0.7669,0.771 -1.0239,1.3652c-0.257,0.5951 -0.4296,1.4062 -0.518,2.4333c0.4112,-0.6753 0.9396,-1.2038 1.5853,-1.5852c0.6465,-0.3815 1.3805,-0.5726 2.202,-0.5726zm-0.7701,9.4906c0.8954,0 1.6069,-0.3043 2.1361,-0.9138c0.5284,-0.6096 0.7927,-1.6696 0.7927,-3.1818c0,-1.3363 -0.2169,-2.2976 -0.6497,-2.8846c-0.4329,-0.5871 -1.0609,-0.881 -1.8832,-0.881c-0.6754,0 -1.3066,0.1799 -1.8937,0.5397c-0.587,0.3598 -1.0712,0.9066 -1.4527,1.6406l0,1.4086c0,1.366 0.2602,2.4189 0.7814,3.1601c0.5212,0.7412 1.2439,1.1122 2.1691,1.1122zm12.9695,-6.496c1.7322,0 2.9874,0.3381 3.7656,1.0127c0.7782,0.6754 1.1668,1.6375 1.1668,2.8846c0,1.3066 -0.4368,2.2944 -1.3098,2.9617c-0.8737,0.6682 -1.9562,1.0023 -3.2484,1.0023l-3.9414,0l0,-10.0633l-3.2589,0l0,-1.5411l5.285,0l0,3.7431l1.5411,0zm0.1984,6.276c0.8223,0 1.4567,-0.1839 1.9048,-0.5509c0.4473,-0.367 0.6714,-0.9757 0.6714,-1.8278c0,-0.8071 -0.2088,-1.4013 -0.6272,-1.7836c-0.4184,-0.3814 -1.142,-0.5726 -2.1691,-0.5726l-1.5194,0l0,4.7349l1.7395,0zm16.3609,-4.5582c0,0.3373 -0.0145,0.6826 -0.0442,1.0351l-7.3987,0c0.0884,1.2769 0.4112,2.2165 0.9693,2.818c0.5574,0.6023 1.2769,0.9035 2.1579,0.9035c0.5573,0 1.0713,-0.0811 1.5411,-0.2426c0.4698,-0.1614 0.9612,-0.4184 1.4752,-0.7709l0.881,1.211c-1.2327,0.9693 -2.5835,1.4536 -4.0515,1.4536c-1.615,0 -2.8742,-0.5284 -3.7768,-1.5853c-0.9027,-1.0568 -1.354,-2.5104 -1.354,-4.3598c0,-1.2038 0.1943,-2.2719 0.5838,-3.2043c0.3887,-0.9323 0.9468,-1.6623 1.6728,-2.1907c0.7268,-0.5285 1.582,-0.7927 2.5658,-0.7927c1.5411,0 2.7232,0.506 3.5455,1.5194c0.8216,1.0127 1.2328,2.4149 1.2328,4.2057zm-2.0037,-0.5951c0,-1.1443 -0.2281,-2.0181 -0.6826,-2.6196c-0.4553,-0.6023 -1.1379,-0.9034 -2.0478,-0.9034c-1.6592,0 -2.5618,1.219 -2.7088,3.6555l5.4392,0l0,-0.1325zm14.4456,10.0416l-1.6519,0l-0.3301,-3.303l-7.4428,0l-0.3309,3.303l-1.6511,0l0,-4.9325l0.8151,0c0.3518,-0.2353 0.6312,-0.5027 0.836,-0.8038c0.2056,-0.3012 0.3927,-0.8256 0.5622,-1.574c0.1686,-0.7493 0.3043,-1.8431 0.4071,-3.2814l0.3084,-4.3157l7.2662,0l0,9.9749l1.2118,0l0,4.9325zm-6.6502,-13.3004l-0.1767,2.4445c-0.1028,1.3652 -0.22,2.4148 -0.3517,3.1488c-0.1325,0.734 -0.3197,1.2994 -0.5622,1.6953c-0.2417,0.3967 -0.5902,0.7565 -1.0456,1.0793l5.5492,0l0,-8.3679l-3.413,0zm16.6468,9.9974l0,-5.2409c0,-0.8809 0.0289,-1.7177 0.0883,-2.5103c0.0586,-0.7927 0.11,-1.3139 0.1534,-1.5636l-4.8216,9.3148l-2.4446,0l0,-11.6044l2.0037,0l0,5.2409c0,0.7773 -0.0289,1.5812 -0.0883,2.4108c-0.0587,0.8295 -0.1028,1.362 -0.1318,1.5965l4.7566,-9.2482l2.4879,0l0,11.6044l-2.0036,0zm8.2137,-5.1084l0,5.1084l-2.0261,0l0,-11.6044l2.0261,0l0,4.8658l4.8225,0l0,-4.8658l2.0253,0l0,11.6044l-2.0253,0l0,-5.1084l-4.8225,0zm19.7957,-1.0351c0,0.3373 -0.0145,0.6826 -0.0442,1.0351l-7.3987,0c0.0884,1.2769 0.4112,2.2165 0.9693,2.818c0.5574,0.6023 1.2769,0.9035 2.1579,0.9035c0.5573,0 1.0713,-0.0811 1.5411,-0.2426c0.4698,-0.1614 0.9612,-0.4184 1.4752,-0.7709l0.881,1.211c-1.2328,0.9693 -2.5835,1.4536 -4.0515,1.4536c-1.615,0 -2.8742,-0.5284 -3.7768,-1.5853c-0.9027,-1.0568 -1.354,-2.5104 -1.354,-4.3598c0,-1.2038 0.1943,-2.2719 0.5838,-3.2043c0.3887,-0.9323 0.9468,-1.6623 1.6728,-2.1907c0.7268,-0.5285 1.582,-0.7927 2.5658,-0.7927c1.5411,0 2.7232,0.506 3.5455,1.5194c0.8216,1.0127 1.2328,2.4149 1.2328,4.2057zm-2.0037,-0.5951c0,-1.1443 -0.2281,-2.0181 -0.6826,-2.6196c-0.4553,-0.6023 -1.138,-0.9034 -2.0478,-0.9034c-1.6592,0 -2.5618,1.219 -2.7088,3.6555l5.4392,0l0,-0.1325zm7.377,1.6302l0,5.1084l-2.0262,0l0,-11.6044l2.0262,0l0,4.8658l4.8224,0l0,-4.8658l2.0253,0l0,11.6044l-2.0253,0l0,-5.1084l-4.8224,0zm18.0561,5.1084l0,-5.2409c0,-0.8809 0.029,-1.7177 0.0884,-2.5103c0.0586,-0.7927 0.11,-1.3139 0.1534,-1.5636l-4.8216,9.3148l-2.4446,0l0,-11.6044l2.0037,0l0,5.2409c0,0.7773 -0.0289,1.5812 -0.0884,2.4108c-0.0586,0.8295 -0.1028,1.362 -0.1317,1.5965l4.7566,-9.2482l2.4879,0l0,11.6044l-2.0037,0zm14.9516,-6.1435c0,0.3373 -0.0145,0.6826 -0.0442,1.0351l-7.3987,0c0.0884,1.2769 0.4112,2.2165 0.9693,2.818c0.5574,0.6023 1.2769,0.9035 2.1579,0.9035c0.5573,0 1.0713,-0.0811 1.5411,-0.2426c0.4698,-0.1614 0.9612,-0.4184 1.4752,-0.7709l0.881,1.211c-1.2327,0.9693 -2.5835,1.4536 -4.0515,1.4536c-1.615,0 -2.8742,-0.5284 -3.7768,-1.5853c-0.9027,-1.0568 -1.354,-2.5104 -1.354,-4.3598c0,-1.2038 0.1943,-2.2719 0.5838,-3.2043c0.3887,-0.9323 0.9468,-1.6623 1.6728,-2.1907c0.7268,-0.5285 1.5821,-0.7927 2.5658,-0.7927c1.5411,0 2.7232,0.506 3.5456,1.5194c0.8215,1.0127 1.2327,2.4149 1.2327,4.2057zm-2.0037,-0.5951c0,-1.1443 -0.2281,-2.0181 -0.6826,-2.6196c-0.4553,-0.6023 -1.1379,-0.9034 -2.0478,-0.9034c-1.6592,0 -2.5618,1.219 -2.7088,3.6555l5.4392,0l0,-0.1325z" fill-rule="evenodd" fill="#f27e00"/>
  </g>
 </g>
</svg>